<svg width="20" height="20" viewBox="0 0 20 20" fill="none" xmlns="http://www.w3.org/2000/svg">
<path d="M10 0C2.99091 0 0 2.99091 0 10C0 17.0091 2.99091 20 10 20C17.0091 20 20 17.0091 20 10C20 2.99091 17.0091 0 10 0ZM14.8227 7.76273C13.63 9.62909 11.9318 11.9682 9.36727 13.5073C9.07273 13.6845 8.70273 13.68 8.41273 13.4955C7.03091 12.62 5.99364 11.6818 5.14545 10.5427C4.84545 10.14 4.92909 9.57091 5.33182 9.27091C5.73364 8.97091 6.30364 9.05545 6.60273 9.45727C7.21545 10.28 7.95545 10.9836 8.90818 11.6436C10.8718 10.3164 12.2209 8.45545 13.2891 6.78364C13.5609 6.36 14.1227 6.23636 14.5445 6.50727C14.9682 6.77818 15.0927 7.34 14.8227 7.76273Z" fill="#D72229"/>
</svg>
