<svg width="19" height="15" viewBox="0 0 19 15" fill="none" xmlns="http://www.w3.org/2000/svg">
<path d="M17.4883 11.9951C18.1096 11.9951 18.6133 12.5046 18.6133 13.1328C18.6131 13.719 18.1749 14.2019 17.6113 14.2637L17.4883 14.2705H1.125C0.503773 14.2705 0.000151524 13.7609 0 13.1328C0 12.5466 0.43853 12.0639 1.00195 12.002L1.125 11.9951H17.4883ZM17.4883 5.99707C18.1095 5.99707 18.6131 6.50665 18.6133 7.13477C18.6133 7.72108 18.1749 8.20382 17.6113 8.26562L17.4883 8.27246H1.125C0.503679 8.27246 0 7.76299 0 7.13477C0.000125398 6.54868 0.438582 6.06585 1.00195 6.00391L1.125 5.99707H17.4883ZM17.4883 0C18.1096 0 18.6133 0.509468 18.6133 1.1377C18.6132 1.72394 18.1749 2.20678 17.6113 2.26855L17.4883 2.27539H1.125C0.503742 2.27539 0.000101585 1.76583 0 1.1377C0 0.551517 0.438525 0.0688151 1.00195 0.00683594L1.125 0H17.4883Z" fill="black"/>
</svg>
