<svg width="17" height="14" viewBox="0 0 17 14" fill="none" xmlns="http://www.w3.org/2000/svg">
<path d="M15.2824 1.25188C15.2065 1.04968 15.0452 0.891281 14.8415 0.819015C14.6036 0.735069 12.3889 0 8.02955 0C3.5549 0 1.30663 0.787626 1.21319 0.821204C1.01099 0.8942 0.850403 1.05187 0.775217 1.25334C0.695651 1.46649 0 3.4257 0 6.56964C0 9.77489 0.744559 11.8027 0.775947 11.8874C0.851863 12.0896 1.01318 12.248 1.21684 12.3203C1.45481 12.4042 3.66951 13.1393 8.02882 13.1393C12.5035 13.1393 14.7517 12.3516 14.8452 12.3181C15.0474 12.2451 15.208 12.0874 15.2832 11.8859C15.3627 11.6728 16.0584 9.71357 16.0584 6.56964C16.0584 3.36438 15.3138 1.33656 15.2824 1.25188ZM5.61923 9.48947C5.29659 9.48947 5.03599 9.22669 5.03672 8.90405C5.03672 8.9004 5.03161 8.59308 4.93161 8.02955H3.53154C3.43154 8.59381 3.42643 8.90186 3.42643 8.90624C3.42497 9.22742 3.16364 9.48801 2.84246 9.48801C2.52128 9.48801 2.25995 9.22888 2.25922 8.90697C2.25922 8.86755 2.26214 7.93612 2.74611 6.31123C3.21182 4.74766 3.68994 3.99361 3.74323 3.91331C3.95857 3.5841 4.50458 3.5841 4.71992 3.91331C4.7732 3.99361 5.25133 4.74839 5.71704 6.31123C6.20101 7.93612 6.20465 8.86755 6.20392 8.90697C6.20392 9.22888 5.94114 9.48947 5.61923 9.48947ZM14.024 11.0421C13.2831 11.2421 11.2917 11.6794 8.02955 11.6794V1.45992C11.3115 1.45992 13.2831 1.89424 14.0233 2.09571C14.2167 2.74757 14.5992 4.32136 14.5992 6.56964C14.5992 8.81791 14.2174 10.3881 14.024 11.0421ZM4.65787 6.86162H3.80455C3.92353 6.41488 4.10237 5.90172 4.23157 5.57543C4.34545 5.86449 4.51188 6.40028 4.65787 6.86162ZM12.9283 5.54769C12.8714 6.5711 12.6217 7.41858 12.1662 8.06678C12.7093 8.34417 13.2312 8.32154 13.2437 8.32154C13.559 8.29088 13.8415 8.53834 13.867 8.85879C13.8919 9.17997 13.651 9.46101 13.3298 9.48582C12.8896 9.49312 12.1808 9.4683 11.3144 8.91792C10.4472 9.4683 9.73985 9.49312 9.29895 9.48582C8.97777 9.46101 8.73688 9.17997 8.7617 8.85879C8.78652 8.53834 9.06975 8.29088 9.38509 8.32154C9.3975 8.32154 9.91796 8.34417 10.461 8.06751C10.3019 7.83466 10.164 7.58136 10.0552 7.29959C9.96687 7.07112 10.0895 6.56964 10.5443 6.56964C10.9056 6.56964 11.0647 6.72001 11.1706 6.966C11.2144 7.06674 11.2691 7.15433 11.3217 7.24412C11.5793 6.80687 11.721 6.23166 11.7655 5.54769H9.34421C9.02157 5.54769 8.76024 5.28637 8.76024 4.96372C8.76024 4.64108 9.02157 4.37976 9.34421 4.37976H10.7311V4.23377C10.7311 3.91112 10.9925 3.6498 11.3151 3.6498C11.6377 3.6498 11.8991 3.91112 11.8991 4.23377V4.37976H13.286C13.6086 4.37976 13.87 4.64108 13.87 4.96372C13.87 5.28637 13.6086 5.54769 13.286 5.54769H12.9298H12.9283Z" fill="black"/>
</svg>
