<svg width="17" height="15" viewBox="0 0 17 15" fill="none" xmlns="http://www.w3.org/2000/svg">
<path d="M1.19267 10.3557L5.37268 14.4933C5.70069 14.8179 6.1455 15.0001 6.60926 15C7.07302 14.9999 7.51775 14.8174 7.8456 14.4927C8.17345 14.1681 8.35757 13.7278 8.35746 13.2687C8.35735 12.8097 8.17302 12.3694 7.84501 12.0449L5.002 9.23074L15.2515 9.23074C15.7153 9.23074 16.16 9.04839 16.4879 8.72382C16.8158 8.39924 17 7.95902 17 7.5C17 7.04098 16.8158 6.60076 16.4879 6.27619C16.16 5.95161 15.7153 5.76927 15.2515 5.76927L5.002 5.76927L7.84502 2.95509C8.17302 2.63056 8.35736 2.19035 8.35746 1.73129C8.35757 1.27223 8.17345 0.831935 7.8456 0.507256C7.51775 0.182575 7.07302 0.000109758 6.60926 9.98961e-07C6.1455 -0.000106807 5.70069 0.18215 5.37268 0.506677L1.19267 4.64429C0.428903 5.40239 -1.15808e-06 6.42935 -1.25168e-06 7.5C-1.34528e-06 8.57065 0.428902 9.59761 1.19267 10.3557Z" fill="#010101"/>
</svg>
