<svg width="23" height="18" viewBox="0 0 23 18" fill="none" xmlns="http://www.w3.org/2000/svg">
<path d="M13.4168 15.3333C13.4168 16.3875 12.5543 17.25 11.5001 17.25C10.4459 17.25 9.58344 16.3875 9.58344 15.3333C9.58344 14.2792 10.4459 13.4167 11.5001 13.4167C12.5543 13.4167 13.4168 14.2792 13.4168 15.3333ZM22.7414 4.90667C20.7959 2.80792 18.3234 1.30333 15.5826 0.54625C15.0747 0.4025 14.5476 0.709167 14.4039 1.21708C14.2601 1.725 14.5668 2.25208 15.0747 2.39583C17.4705 3.05708 19.6364 4.37958 21.3326 6.21C21.5243 6.41125 21.7734 6.51667 22.0322 6.51667C22.2622 6.51667 22.5018 6.43042 22.6839 6.25792C23.0672 5.89375 23.0959 5.29 22.7318 4.90667H22.7414ZM7.40803 0.555833C4.66719 1.31292 2.19469 2.8175 0.249278 4.91625C-0.114888 5.29958 -0.0861385 5.91292 0.297195 6.2675C0.479278 6.44 0.718861 6.52625 0.948861 6.52625C1.20761 6.52625 1.46636 6.42083 1.64844 6.21958C3.35428 4.38917 5.51053 3.06667 7.90636 2.40542C8.41428 2.26167 8.71136 1.73458 8.57719 1.22667C8.43344 0.71875 7.90636 0.412083 7.39844 0.555833H7.40803ZM15.803 7.83917C15.343 7.58042 14.7584 7.74333 14.4997 8.20333C14.2409 8.66333 14.4039 9.24792 14.8639 9.50667C15.4868 9.86125 16.0522 10.3021 16.5409 10.8292C16.7326 11.0304 16.9818 11.1358 17.2405 11.1358C17.4705 11.1358 17.7101 11.0496 17.8922 10.8771C18.2755 10.5129 18.3043 9.90917 17.9401 9.52583C17.3172 8.855 16.5984 8.28958 15.803 7.83917ZM7.19719 7.83917C6.40178 8.28958 5.68303 8.855 5.06011 9.52583C4.69594 9.90917 4.72469 10.5225 5.10803 10.8771C5.29011 11.0496 5.52969 11.1358 5.75969 11.1358C6.01844 11.1358 6.27719 11.0304 6.45928 10.8292C6.94803 10.3021 7.51344 9.86125 8.13636 9.50667C8.59636 9.24792 8.75928 8.66333 8.50053 8.20333C8.24178 7.74333 7.65719 7.58042 7.19719 7.83917ZM11.5001 11.5096C12.0272 11.5096 12.4584 11.0783 12.4584 10.5513V0.958333C12.4584 0.43125 12.0272 0 11.5001 0C10.973 0 10.5418 0.43125 10.5418 0.958333V10.5417C10.5418 11.0687 10.973 11.5 11.5001 11.5V11.5096Z" fill="#D72229"/>
</svg>
